{
  "accessors": [
    {
      "bufferView": 2,
      "componentType": 5126,
      "count": 9,
      "max": [
        0.02631578966975212,
        0.27700379490852356,
        0.0
      ],
      "min": [
        -0.03947367146611214,
        -0.3706488311290741,
        0.0
      ],
      "type": "VEC3"
    },
    {
      "bufferView": 2,
      "byteOffset": 108,
      "componentType": 5126,
      "count": 9,
      "max": [
        0.0,
        0.0,
        1.0
      ],
      "min": [
        0.0,
        0.0,
        1.0
      ],
      "type": "VEC3"
    },
    {
      "bufferView": 1,
      "componentType": 5126,
      "count": 9,
      "max": [
        0.5131579041481018,
        0.6385018825531006
      ],
      "min": [
        0.4802631735801697,
        0.31467559933662415
      ],
      "type": "VEC2"
    },
    {
      "bufferView": 0,
      "componentType": 5125,
      "count": 30,
      "type": "SCALAR"
    },
    {
      "bufferView": 2,
      "byteOffset": 216,
      "componentType": 5126,
      "count": 25,
      "max": [
        0.9736841320991516,
        1.1053882837295532,
        4.76837158203125e-07
      ],
      "min": [
        -7.82310962677002e-08,
        -0.894611656665802,
        4.76837158203125e-07
      ],
      "type": "VEC3"
    },
    {
      "bufferView": 2,
      "byteOffset": 516,
      "componentType": 5126,
      "count": 25,
      "max": [
        -2.2199786564700182e-14,
        0.0,
        1.0
      ],
      "min": [
        -2.2199786564700182e-14,
        0.0,
        1.0
      ],
      "type": "VEC3"
    },
    {
      "bufferView": 1,
      "byteOffset": 72,
      "componentType": 5126,
      "count": 25,
      "max": [
        1.0,
        1.0
      ],
      "min": [
        0.5131579041481018,
        0.0
      ],
      "type": "VEC2"
    },
    {
      "bufferView": 0,
      "byteOffset": 120,
      "componentType": 5125,
      "count": 69,
      "type": "SCALAR"
    },
    {
      "bufferView": 2,
      "byteOffset": 816,
      "componentType": 5126,
      "count": 21,
      "max": [
        0.017921125516295433,
        1.1012353897094727,
        4.76837158203125e-07
      ],
      "min": [
        -0.9784476161003113,
        -0.8987646698951721,
        4.76837158203125e-07
      ],
      "type": "VEC3"
    },
    {
      "bufferView": 2,
      "byteOffset": 1068,
      "componentType": 5126,
      "count": 21,
      "max": [
        -1.090617769434598e-14,
        0.0,
        1.0
      ],
      "min": [
        -1.090617769434598e-14,
        0.0,
        1.0
      ],
      "type": "VEC3"
    },
    {
      "bufferView": 1,
      "byteOffset": 272,
      "componentType": 5126,
      "count": 21,
      "max": [
        0.4981844425201416,
        1.0
      ],
      "min": [
        0.0,
        0.0
      ],
      "type": "VEC2"
    },
    {
      "bufferView": 0,
      "byteOffset": 396,
      "componentType": 5125,
      "count": 57,
      "type": "SCALAR"
    },
    {
      "bufferView": 2,
      "byteOffset": 1320,
      "componentType": 5126,
      "count": 60555,
      "max": [
        25.71621322631836,
        10.11522388458252,
        46.41328430175781
      ],
      "min": [
        -144.2372589111328,
        -2.333493947982788,
        -125.03658294677734
      ],
      "type": "VEC3"
    },
    {
      "bufferView": 2,
      "byteOffset": 727980,
      "componentType": 5126,
      "count": 60555,
      "max": [
        0.9999964237213135,
        0.9999974966049194,
        0.9999852180480957
      ],
      "min": [
        -0.9999407529830933,
        -0.9999958276748657,
        -0.9999748468399048
      ],
      "type": "VEC3"
    },
    {
      "bufferView": 3,
      "componentType": 5126,
      "count": 60555,
      "max": [
        0.9999918341636658,
        0.5745673775672913,
        0.9999993443489075,
        1.0
      ],
      "min": [
        -0.9999770522117615,
        -0.9967337250709534,
        -0.9999893307685852,
        -1.0
      ],
      "type": "VEC4"
    },
    {
      "bufferView": 1,
      "byteOffset": 440,
      "componentType": 5126,
      "count": 60555,
      "max": [
        0.9995468854904175,
        0.9995500445365906
      ],
      "min": [
        0.0004499318893067539,
        0.0004499318893067539
      ],
      "type": "VEC2"
    },
    {
      "bufferView": 1,
      "byteOffset": 484880,
      "componentType": 5126,
      "count": 60555,
      "max": [
        0.9995468854904175,
        0.9995500445365906
      ],
      "min": [
        0.0004499318893067539,
        0.0004499318893067539
      ],
      "type": "VEC2"
    },
    {
      "bufferView": 1,
      "byteOffset": 969320,
      "componentType": 5126,
      "count": 60555,
      "max": [
        0.9995468854904175,
        0.9995500445365906
      ],
      "min": [
        0.0004499318893067539,
        0.0004499318893067539
      ],
      "type": "VEC2"
    },
    {
      "bufferView": 0,
      "byteOffset": 624,
      "componentType": 5125,
      "count": 133026,
      "type": "SCALAR"
    },
    {
      "bufferView": 2,
      "byteOffset": 1454640,
      "componentType": 5126,
      "count": 1920,
      "max": [
        1.0,
        1.0,
        1.624854326248169
      ],
      "min": [
        -1.0,
        -1.0,
        -1.0
      ],
      "type": "VEC3"
    },
    {
      "bufferView": 2,
      "byteOffset": 1477680,
      "componentType": 5126,
      "count": 1920,
      "max": [
        0.9969195127487183,
        0.9969195127487183,
        1.0
      ],
      "min": [
        -0.9969195127487183,
        -0.9969195127487183,
        -1.0
      ],
      "type": "VEC3"
    },
    {
      "bufferView": 1,
      "byteOffset": 1453760,
      "componentType": 5126,
      "count": 1920,
      "max": [
        1.0,
        1.0
      ],
      "min": [
        0.0,
        0.5
      ],
      "type": "VEC2"
    },
    {
      "bufferView": 0,
      "byteOffset": 532728,
      "componentType": 5125,
      "count": 7296,
      "type": "SCALAR"
    },
    {
      "bufferView": 4,
      "componentType": 5126,
      "count": 7,
      "max": [
        1.0,
        0.0,
        0.0,
        0.0,
        0.0,
        1.0,
        0.0,
        0.0,
        0.0,
        0.0,
        1.0,
        0.0,
        0.0,
        0.0,
        0.0,
        1.0
      ],
      "min": [
        1.0,
        0.0,
        0.0,
        0.0,
        0.0,
        1.0,
        0.0,
        0.0,
        0.0,
        0.0,
        1.0,
        0.0,
        0.0,
        0.0,
        0.0,
        1.0
      ],
      "type": "MAT4"
    },
    {
      "bufferView": 5,
      "componentType": 5126,
      "count": 139,
      "max": [
        5.791666507720947
      ],
      "min": [
        0.0
      ],
      "type": "SCALAR"
    },
    {
      "bufferView": 6,
      "componentType": 5126,
      "count": 139,
      "max": [
        2.713573455810547,
        0.9529775381088257,
        3.8195724487304688
      ],
      "min": [
        -5.548389434814453,
        -6.828070163726807,
        -3.0226900577545166
      ],
      "type": "VEC3"
    },
    {
      "bufferView": 5,
      "byteOffset": 556,
      "componentType": 5126,
      "count": 228,
      "max": [
        5.791666507720947
      ],
      "min": [
        0.0
      ],
      "type": "SCALAR"
    },
    {
      "bufferView": 7,
      "componentType": 5126,
      "count": 228,
      "max": [
        0.7381411790847778,
        1.3073646866437903e-32,
        4.3578811867866806e-33,
        0.7071067094802856
      ],
      "min": [
        0.7071068286895752,
        -7.049351467004497e-18,
        -7.199913227740174e-18,
        0.674646258354187
      ],
      "type": "VEC4"
    },
    {
      "bufferView": 5,
      "byteOffset": 1468,
      "componentType": 5126,
      "count": 266,
      "max": [
        5.791666507720947
      ],
      "min": [
        0.0
      ],
      "type": "SCALAR"
    },
    {
      "bufferView": 6,
      "byteOffset": 1668,
      "componentType": 5126,
      "count": 266,
      "max": [
        2.713571310043335,
        0.9529780745506287,
        3.8195722103118896
      ],
      "min": [
        -5.548389434814453,
        -6.828070163726807,
        -3.0226900577545166
      ],
      "type": "VEC3"
    },
    {
      "bufferView": 5,
      "byteOffset": 2532,
      "componentType": 5126,
      "count": 6,
      "max": [
        5.791666507720947
      ],
      "min": [
        0.0
      ],
      "type": "SCALAR"
    },
    {
      "bufferView": 6,
      "byteOffset": 4860,
      "componentType": 5126,
      "count": 6,
      "max": [
        1.000000238418579,
        1.0000001192092896,
        1.0
      ],
      "min": [
        1.0,
        1.0000001192092896,
        1.0
      ],
      "type": "VEC3"
    },
    {
      "bufferView": 5,
      "byteOffset": 2556,
      "componentType": 5126,
      "count": 278,
      "max": [
        5.791666507720947
      ],
      "min": [
        0.0
      ],
      "type": "SCALAR"
    },
    {
      "bufferView": 7,
      "byteOffset": 3648,
      "componentType": 5126,
      "count": 278,
      "max": [
        0.11834638565778732,
        0.2049407958984375,
        0.9553959369659424,
        0.9654911756515503
      ],
      "min": [
        -0.24080610275268555,
        -0.23828819394111633,
        -0.8216925859451294,
        -0.47449925541877747
      ],
      "type": "VEC4"
    },
    {
      "bufferView": 5,
      "byteOffset": 3668,
      "componentType": 5126,
      "count": 259,
      "max": [
        5.791666507720947
      ],
      "min": [
        0.0
      ],
      "type": "SCALAR"
    },
    {
      "bufferView": 6,
      "byteOffset": 4932,
      "componentType": 5126,
      "count": 259,
      "max": [
        2.7135753631591797,
        0.9529781341552734,
        3.819573402404785
      ],
      "min": [
        -5.548389434814453,
        -6.828070640563965,
        -3.022690534591675
      ],
      "type": "VEC3"
    },
    {
      "bufferView": 5,
      "byteOffset": 4704,
      "componentType": 5126,
      "count": 4,
      "max": [
        5.791666507720947
      ],
      "min": [
        0.0
      ],
      "type": "SCALAR"
    },
    {
      "bufferView": 6,
      "byteOffset": 8040,
      "componentType": 5126,
      "count": 4,
      "max": [
        1.0,
        1.0,
        1.0
      ],
      "min": [
        0.9999999403953552,
        0.9999999403953552,
        1.0
      ],
      "type": "VEC3"
    },
    {
      "bufferView": 5,
      "byteOffset": 4720,
      "componentType": 5126,
      "count": 278,
      "max": [
        5.791666507720947
      ],
      "min": [
        0.0
      ],
      "type": "SCALAR"
    },
    {
      "bufferView": 7,
      "byteOffset": 8096,
      "componentType": 5126,
      "count": 278,
      "max": [
        -0.05161779373884201,
        -0.04471798613667488,
        0.9450267553329468,
        0.9494701623916626
      ],
      "min": [
        -0.2667970657348633,
        -0.265548437833786,
        0.15914157032966614,
        0.1836957335472107
      ],
      "type": "VEC4"
    },
    {
      "bufferView": 5,
      "byteOffset": 5832,
      "componentType": 5126,
      "count": 278,
      "max": [
        5.791666507720947
      ],
      "min": [
        0.0
      ],
      "type": "SCALAR"
    },
    {
      "bufferView": 6,
      "byteOffset": 8088,
      "componentType": 5126,
      "count": 278,
      "max": [
        64.1030044555664,
        248.9846649169922,
        18.734115600585938
      ],
      "min": [
        -22.896390914916992,
        41.49251174926758,
        -85.1581802368164
      ],
      "type": "VEC3"
    }
  ],
  "animations": [
    {
      "channels": [
        {
          "sampler": 0,
          "target": {
            "node": 7,
            "path": "translation"
          }
        },
        {
          "sampler": 1,
          "target": {
            "node": 7,
            "path": "rotation"
          }
        },
        {
          "sampler": 2,
          "target": {
            "node": 11,
            "path": "translation"
          }
        },
        {
          "sampler": 3,
          "target": {
            "node": 11,
            "path": "scale"
          }
        },
        {
          "sampler": 4,
          "target": {
            "node": 11,
            "path": "rotation"
          }
        },
        {
          "sampler": 5,
          "target": {
            "node": 15,
            "path": "translation"
          }
        },
        {
          "sampler": 6,
          "target": {
            "node": 15,
            "path": "scale"
          }
        },
        {
          "sampler": 7,
          "target": {
            "node": 15,
            "path": "rotation"
          }
        },
        {
          "sampler": 8,
          "target": {
            "node": 4,
            "path": "translation"
          }
        }
      ],
      "name": "Armature|Butterfly",
      "samplers": [
        {
          "input": 24,
          "interpolation": "LINEAR",
          "output": 25
        },
        {
          "input": 26,
          "interpolation": "LINEAR",
          "output": 27
        },
        {
          "input": 28,
          "interpolation": "LINEAR",
          "output": 29
        },
        {
          "input": 30,
          "interpolation": "LINEAR",
          "output": 31
        },
        {
          "input": 32,
          "interpolation": "LINEAR",
          "output": 33
        },
        {
          "input": 34,
          "interpolation": "LINEAR",
          "output": 35
        },
        {
          "input": 36,
          "interpolation": "LINEAR",
          "output": 37
        },
        {
          "input": 38,
          "interpolation": "LINEAR",
          "output": 39
        },
        {
          "input": 40,
          "interpolation": "LINEAR",
          "output": 41
        }
      ]
    }
  ],
  "asset": {
    "extras": {
      "author": "Wolfram9 (https://sketchfab.com/Wolfram9)",
      "license": "CC-BY-4.0 (http://creativecommons.org/licenses/by/4.0/)",
      "source": "https://sketchfab.com/3d-models/butterfly-diorama-260e957761db4bee8f7cd34e718a4704",
      "title": "Butterfly diorama"
    },
    "generator": "Sketchfab-12.68.0",
    "version": "2.0"
  },
  "bufferViews": [
    {
      "buffer": 0,
      "byteLength": 561912,
      "name": "floatBufferViews",
      "target": 34963
    },
    {
      "buffer": 0,
      "byteLength": 1469120,
      "byteOffset": 561912,
      "byteStride": 8,
      "name": "floatBufferViews",
      "target": 34962
    },
    {
      "buffer": 0,
      "byteLength": 1500720,
      "byteOffset": 2031032,
      "byteStride": 12,
      "name": "floatBufferViews",
      "target": 34962
    },
    {
      "buffer": 0,
      "byteLength": 968880,
      "byteOffset": 3531752,
      "byteStride": 16,
      "name": "floatBufferViews",
      "target": 34962
    },
    {
      "buffer": 0,
      "byteLength": 448,
      "byteOffset": 4500632,
      "name": "floatBufferViews"
    },
    {
      "buffer": 0,
      "byteLength": 6944,
      "byteOffset": 4501080,
      "name": "floatBufferViews"
    },
    {
      "buffer": 0,
      "byteLength": 11424,
      "byteOffset": 4508024,
      "byteStride": 12,
      "name": "floatBufferViews"
    },
    {
      "buffer": 0,
      "byteLength": 12544,
      "byteOffset": 4519448,
      "byteStride": 16,
      "name": "floatBufferViews"
    }
  ],
  "buffers": [
    {
      "byteLength": 4531992,
      "uri": "scene.bin"
    }
  ],
  "images": [
    {
      "uri": "textures/Butterfly_baseColor.png"
    },
    {
      "uri": "textures/Earth_baseColor.png"
    },
    {
      "uri": "textures/Earth_metallicRoughness.png"
    },
    {
      "uri": "textures/Earth_normal.png"
    }
  ],
  "materials": [
    {
      "doubleSided": true,
      "emissiveFactor": [
        0.0,
        0.10577560211410816,
        1.0
      ],
      "name": "Butterfly",
      "pbrMetallicRoughness": {
        "baseColorTexture": {
          "index": 0
        },
        "metallicFactor": 0.0
      }
    },
    {
      "doubleSided": true,
      "name": "Earth",
      "normalTexture": {
        "index": 3
      },
      "occlusionTexture": {
        "index": 2
      },
      "pbrMetallicRoughness": {
        "baseColorTexture": {
          "index": 1
        },
        "metallicFactor": 0.0,
        "metallicRoughnessTexture": {
          "index": 2
        },
        "roughnessFactor": 0.7968733726572538
      }
    },
    {
      "doubleSided": true,
      "name": "Glass",
      "pbrMetallicRoughness": {
        "roughnessFactor": 0.0
      }
    }
  ],
  "meshes": [
    {
      "name": "Butt_Butterfly_0",
      "primitives": [
        {
          "attributes": {
            "NORMAL": 1,
            "POSITION": 0,
            "TEXCOORD_0": 2
          },
          "indices": 3,
          "material": 0,
          "mode": 4
        }
      ]
    },
    {
      "name": "Wing_Butterfly_0",
      "primitives": [
        {
          "attributes": {
            "NORMAL": 5,
            "POSITION": 4,
            "TEXCOORD_0": 6
          },
          "indices": 7,
          "material": 0,
          "mode": 4
        }
      ]
    },
    {
      "name": "Wing2_Butterfly_0",
      "primitives": [
        {
          "attributes": {
            "NORMAL": 9,
            "POSITION": 8,
            "TEXCOORD_0": 10
          },
          "indices": 11,
          "material": 0,
          "mode": 4
        }
      ]
    },
    {
      "name": "Grass_Earth_0",
      "primitives": [
        {
          "attributes": {
            "NORMAL": 13,
            "POSITION": 12,
            "TANGENT": 14,
            "TEXCOORD_0": 15,
            "TEXCOORD_1": 16,
            "TEXCOORD_2": 17
          },
          "indices": 18,
          "material": 1,
          "mode": 4
        }
      ]
    },
    {
      "name": "Jar_Glass_0",
      "primitives": [
        {
          "attributes": {
            "NORMAL": 20,
            "POSITION": 19,
            "TEXCOORD_0": 21
          },
          "indices": 22,
          "material": 2,
          "mode": 4
        }
      ]
    }
  ],
  "nodes": [
    {
      "children": [
        1
      ],
      "matrix": [
        1.0,
        0.0,
        0.0,
        0.0,
        0.0,
        2.220446049250313e-16,
        -1.0,
        0.0,
        0.0,
        1.0,
        2.220446049250313e-16,
        0.0,
        0.0,
        0.0,
        0.0,
        1.0
      ],
      "name": "Sketchfab_model"
    },
    {
      "children": [
        2
      ],
      "matrix": [
        1.0,
        0.0,
        0.0,
        0.0,
        0.0,
        0.0,
        1.0,
        0.0,
        0.0,
        -1.0,
        0.0,
        0.0,
        0.0,
        0.0,
        0.0,
        1.0
      ],
      "name": "ButerflyDiorama.fbx"
    },
    {
      "children": [
        3
      ],
      "name": "Object_2"
    },
    {
      "children": [
        4,
        19,
        21
      ],
      "name": "RootNode"
    },
    {
      "children": [
        5
      ],
      "name": "Armature",
      "rotation": [
        0.2617850601673126,
        -5.097828217678062e-24,
        -5.812795364268158e-17,
        0.9651262164115906
      ],
      "scale": [
        3.609714984893799,
        3.609714984893799,
        3.609714984893799
      ],
      "translation": [
        11.459084510803223,
        76.49927520751953,
        0.006095694378018379
      ]
    },
    {
      "children": [
        6
      ],
      "name": "Object_5"
    },
    {
      "children": [
        7,
        11,
        15
      ],
      "name": "_rootJoint"
    },
    {
      "children": [
        8,
        9
      ],
      "name": "Bone_00",
      "rotation": [
        0.7381412386894226,
        -7.049351467004497e-18,
        -7.049344022378984e-18,
        0.674646258354187
      ],
      "translation": [
        -5.548389434814453,
        -6.828070163726807,
        3.8195724487304688
      ]
    },
    {
      "name": "Bone_end_03",
      "rotation": [
        -2.7755575615628914e-17,
        -3.0814879110195774e-33,
        6.162975822039155e-33,
        1.0
      ],
      "translation": [
        0.0,
        1.0,
        0.0
      ]
    },
    {
      "children": [
        10
      ],
      "name": "Butt",
      "rotation": [
        0.9999976754188538,
        -1.820523533522962e-24,
        -4.81673991532105e-19,
        0.002169206039980054
      ],
      "scale": [
        4.004593849182129,
        2.738051414489746,
        2.738051414489746
      ],
      "translation": [
        -0.010874748229980469,
        0.15254348516464233,
        -0.0011362191289663315
      ]
    },
    {
      "mesh": 0,
      "name": "Butt_Butterfly_0"
    },
    {
      "children": [
        12,
        13
      ],
      "name": "Bone.001_01",
      "rotation": [
        -0.14014320075511932,
        0.20175082981586456,
        -0.6777142882347107,
        0.693079948425293
      ],
      "scale": [
        1.0,
        1.0000001192092896,
        1.0
      ],
      "translation": [
        -5.548389434814453,
        -6.828070163726807,
        3.8195722103118896
      ]
    },
    {
      "name": "Bone.001_end_04",
      "rotation": [
        2.7755575615628914e-17,
        -2.7755575615628914e-17,
        7.703719777548943e-34,
        1.0
      ],
      "translation": [
        0.0,
        3.5331835746765137,
        1.7763568394002505e-15
      ]
    },
    {
      "children": [
        14
      ],
      "name": "Wing",
      "rotation": [
        -0.3641383945941925,
        -0.6061380505561829,
        0.3641383945941925,
        0.6061378717422485
      ],
      "scale": [
        4.0045928955078125,
        2.738051652908325,
        2.738051414489746
      ],
      "translation": [
        1.1324882507324219e-06,
        -0.15358901023864746,
        0.4899412989616394
      ]
    },
    {
      "mesh": 1,
      "name": "Wing_Butterfly_0"
    },
    {
      "children": [
        16,
        17
      ],
      "name": "Bone.002_02",
      "rotation": [
        -0.1605290323495865,
        -0.22165639698505402,
        0.6714673638343811,
        0.6886439323425293
      ],
      "translation": [
        -5.548389434814453,
        -6.828070640563965,
        3.819573402404785
      ]
    },
    {
      "name": "Bone.002_end_05",
      "rotation": [
        -1.925929944387236e-33,
        2.7755575615628914e-17,
        6.938893903907228e-17,
        1.0
      ],
      "translation": [
        -1.7763568394002505e-15,
        3.4403698444366455,
        8.881784197001252e-16
      ]
    },
    {
      "children": [
        18
      ],
      "name": "Wing2",
      "rotation": [
        -0.34609803557395935,
        0.6166167855262756,
        -0.34609803557395935,
        0.6166167259216309
      ],
      "scale": [
        4.0045928955078125,
        2.738051176071167,
        2.738051414489746
      ],
      "translation": [
        -3.591179847717285e-06,
        -0.1739661693572998,
        0.4717416763305664
      ]
    },
    {
      "mesh": 2,
      "name": "Wing2_Butterfly_0"
    },
    {
      "children": [
        20
      ],
      "name": "Grass",
      "rotation": [
        -0.007402761373668909,
        -0.5512673854827881,
        -0.028525222092866898,
        0.8338080048561096
      ],
      "scale": [
        2.048501968383789,
        5.208189010620117,
        2.04850172996521
      ],
      "translation": [
        -34.245426177978516,
        20.39777374267578,
        136.6522979736328
      ]
    },
    {
      "mesh": 3,
      "name": "Grass_Earth_0"
    },
    {
      "children": [
        22
      ],
      "name": "Jar",
      "rotation": [
        -0.6908831596374512,
        -0.014058444648981094,
        0.013439427129924297,
        0.7227047681808472
      ],
      "scale": [
        31.288679122924805,
        31.288679122924805,
        31.28867530822754
      ],
      "translation": [
        1.4339277744293213,
        52.918678283691406,
        -6.847724762337748e-06
      ]
    },
    {
      "mesh": 4,
      "name": "Jar_Glass_0"
    }
  ],
  "samplers": [
    {
      "magFilter": 9729,
      "minFilter": 9987,
      "wrapS": 10497,
      "wrapT": 10497
    }
  ],
  "scene": 0,
  "scenes": [
    {
      "name": "Sketchfab_Scene",
      "nodes": [
        0
      ]
    }
  ],
  "skins": [
    {
      "inverseBindMatrices": 23,
      "joints": [
        6,
        7,
        8,
        11,
        12,
        15,
        16
      ],
      "skeleton": 6
    }
  ],
  "textures": [
    {
      "sampler": 0,
      "source": 0
    },
    {
      "sampler": 0,
      "source": 1
    },
    {
      "sampler": 0,
      "source": 2
    },
    {
      "sampler": 0,
      "source": 3
    }
  ]
}
